<svg data-v-423bf9ae="" xmlns="http://www.w3.org/2000/svg" viewBox="0 0 235.23301563617872 60" class="font"><!----><!----><!----><g data-v-423bf9ae="" id="f76bb886-657d-401d-b4b4-d907226d6ad4" fill="white" transform="matrix(4.5836515890443295,0,0,4.5836515890443295,-0.045839896208704545,-33.27731158557642)"><path d="M2.27 9.04L2.27 9.04L2.27 14.71L2.27 14.71Q2.30 16.13 2.52 16.34L2.52 16.34L2.52 16.34Q2.71 16.53 3.62 16.53L3.62 16.53L3.62 16.53Q4.72 16.53 5.56 16.26L5.56 16.26L5.56 16.26Q6.40 15.99 6.91 15.55L6.91 15.55L6.91 15.55Q7.42 15.11 7.75 14.49L7.75 14.49L7.75 14.49Q8.07 13.86 8.20 13.21L8.20 13.21L8.20 13.21Q8.32 12.56 8.32 11.81L8.32 11.81L8.32 11.81Q8.32 11.04 8.07 10.20L8.07 10.20L8.07 10.20Q7.83 9.35 7.29 8.82L7.29 8.82L7.29 8.82Q6.83 8.36 5.89 8.21L5.89 8.21L5.89 8.21Q4.96 8.06 3.39 8.06L3.39 8.06L3.39 8.06Q2.57 8.06 2.46 8.11L2.46 8.11L2.46 8.11Q2.45 8.12 2.40 8.13L2.40 8.13L2.40 8.13Q2.36 8.15 2.35 8.16L2.35 8.16L2.35 8.16Q2.34 8.18 2.31 8.23L2.31 8.23L2.31 8.23Q2.29 8.28 2.29 8.37L2.29 8.37L2.29 8.37Q2.28 8.47 2.28 8.63L2.28 8.63L2.28 8.63Q2.27 8.79 2.27 9.04ZM4.02 17.06L0.79 17.06L0.79 16.92L0.79 16.92Q0.98 16.77 1.03 16.59L1.03 16.59L1.03 16.59Q1.08 16.42 1.09 15.98L1.09 15.98L1.09 9.06L1.09 9.06Q1.09 8.83 1.07 8.41L1.07 8.41L1.07 8.41Q1.06 8.31 0.99 8.23L0.99 8.23L0.99 8.23Q0.92 8.15 0.78 8.09L0.78 8.09L0.78 8.09Q0.65 8.04 0.54 8.00L0.54 8.00L0.54 8.00Q0.43 7.97 0.26 7.93L0.26 7.93L0.26 7.93Q0.08 7.88 0.01 7.86L0.01 7.86L0.01 7.59L0.11 7.49L4.49 7.49L4.49 7.49Q5.41 7.49 6.14 7.59L6.14 7.59L6.14 7.59Q6.88 7.70 7.41 7.89L7.41 7.89L7.41 7.89Q7.94 8.07 8.34 8.37L8.34 8.37L8.34 8.37Q8.73 8.66 8.98 9.00L8.98 9.00L8.98 9.00Q9.22 9.34 9.37 9.79L9.37 9.79L9.37 9.79Q9.52 10.23 9.58 10.69L9.58 10.69L9.58 10.69Q9.63 11.14 9.63 11.70L9.63 11.70L9.63 11.70Q9.63 13.09 9.33 14.03L9.33 14.03L9.33 14.03Q9.03 14.98 8.24 15.82L8.24 15.82L8.24 15.82Q7.11 17.06 4.02 17.06L4.02 17.06ZM11.95 12.67L11.95 12.67L11.95 12.67Q11.84 13.13 11.84 13.75L11.84 13.75L11.84 13.75Q11.84 14.14 11.89 14.51L11.89 14.51L11.89 14.51Q11.94 14.89 12.07 15.30L12.07 15.30L12.07 15.30Q12.20 15.71 12.40 16.01L12.40 16.01L12.40 16.01Q12.61 16.32 12.95 16.52L12.95 16.52L12.95 16.52Q13.29 16.71 13.73 16.71L13.73 16.71L13.73 16.71Q14.16 16.71 14.50 16.54L14.50 16.54L14.50 16.54Q14.83 16.37 15.03 16.10L15.03 16.10L15.03 16.10Q15.22 15.83 15.35 15.46L15.35 15.46L15.35 15.46Q15.47 15.09 15.51 14.74L15.51 14.74L15.51 14.74Q15.56 14.39 15.56 14.01L15.56 14.01L15.56 14.01Q15.56 13.62 15.52 13.26L15.52 13.26L15.52 13.26Q15.48 12.91 15.36 12.50L15.36 12.50L15.36 12.50Q15.24 12.10 15.05 11.81L15.05 11.81L15.05 11.81Q14.85 11.52 14.51 11.32L14.51 11.32L14.51 11.32Q14.16 11.13 13.71 11.13L13.71 11.13L13.71 11.13Q13.11 11.13 12.62 11.53L12.62 11.53L12.62 11.53Q12.13 11.92 11.95 12.67ZM13.35 17.29L13.35 17.29L13.35 17.29Q12.65 17.29 12.13 17.04L12.13 17.04L12.13 17.04Q11.61 16.80 11.30 16.37L11.30 16.37L11.30 16.37Q10.99 15.94 10.83 15.44L10.83 15.44L10.83 15.44Q10.68 14.94 10.64 14.35L10.64 14.35L10.64 14.35Q10.64 13.47 10.79 12.79L10.79 12.79L10.79 12.79Q10.94 12.11 11.40 11.61L11.40 11.61L11.40 11.61Q11.87 11.09 12.57 10.84L12.57 10.84L12.57 10.84Q13.26 10.58 14.03 10.58L14.03 10.58L14.03 10.58Q14.77 10.58 15.33 10.85L15.33 10.85L15.33 10.85Q15.89 11.12 16.20 11.58L16.20 11.58L16.20 11.58Q16.51 12.04 16.66 12.59L16.66 12.59L16.66 12.59Q16.81 13.13 16.81 13.75L16.81 13.75L16.81 13.75Q16.81 15.36 16.00 16.26L16.00 16.26L16.00 16.26Q15.53 16.79 14.84 17.04L14.84 17.04L14.84 17.04Q14.14 17.29 13.35 17.29ZM17.17 11.09L17.26 11.01L18.73 11.01L18.82 10.93L18.82 10.93Q18.82 9.79 19.07 9.22L19.07 9.22L19.07 9.22Q19.38 8.50 19.96 8.11L19.96 8.11L19.96 8.11Q20.54 7.72 21.21 7.72L21.21 7.72L21.21 7.72Q22.14 7.72 22.51 8.48L22.51 8.48L21.70 9.24L21.53 9.18L21.53 9.18Q21.51 9.04 21.49 8.97L21.49 8.97L21.49 8.97Q21.47 8.89 21.41 8.74L21.41 8.74L21.41 8.74Q21.35 8.59 21.27 8.51L21.27 8.51L21.27 8.51Q21.20 8.43 21.05 8.36L21.05 8.36L21.05 8.36Q20.90 8.29 20.72 8.29L20.72 8.29L20.72 8.29Q20.30 8.29 20.09 9.03L20.09 9.03L20.09 9.03Q19.88 9.77 19.88 10.93L19.88 10.93L19.93 11.01L21.67 11.01L21.75 11.12L21.64 11.42L21.55 11.50L19.93 11.50L19.85 11.59L19.85 13.14L19.85 13.14Q19.85 15.22 20.00 16.92L20.00 16.92L18.89 17.26L18.65 17.10L18.65 17.10Q18.83 14.43 18.83 13.13L18.83 13.13L18.83 11.61L18.74 11.50L17.18 11.50L17.11 11.41L17.17 11.09ZM24.95 11.74L24.95 11.74L24.95 11.85L24.95 11.85Q27.82 12.11 27.82 14.08L27.82 14.08L27.82 14.08Q27.82 14.78 27.50 15.39L27.50 15.39L27.50 15.39Q27.18 16.01 26.66 16.43L26.66 16.43L26.66 16.43Q26.14 16.85 25.47 17.09L25.47 17.09L25.47 17.09Q24.81 17.33 24.11 17.33L24.11 17.33L24.11 17.33Q22.91 17.33 21.92 16.56L21.92 16.56L21.83 16.41L22.42 15.39L22.55 15.39L22.55 15.39Q23.36 16.77 24.46 16.77L24.46 16.77L24.46 16.77Q25.38 16.77 25.94 16.10L25.94 16.10L25.94 16.10Q26.50 15.42 26.50 14.49L26.50 14.49L26.50 14.49Q26.50 13.62 25.82 12.89L25.82 12.89L25.82 12.89Q25.21 12.26 23.32 12.26L23.32 12.26L23.34 11.89L23.34 11.89Q24.65 11.59 25.33 11.02L25.33 11.02L25.33 11.02Q26.01 10.45 26.01 9.53L26.01 9.53L26.01 9.53Q26.01 8.89 25.57 8.52L25.57 8.52L25.57 8.52Q25.14 8.14 24.49 8.14L24.49 8.14L24.49 8.14Q24.23 8.14 23.90 8.27L23.90 8.27L23.90 8.27Q23.56 8.41 23.35 8.53L23.35 8.53L23.35 8.53Q23.13 8.66 22.78 8.89L22.78 8.89L22.58 8.58L22.58 8.58Q24.14 7.26 25.12 7.26L25.12 7.26L25.12 7.26Q26.00 7.26 26.58 7.76L26.58 7.76L26.58 7.76Q27.16 8.26 27.16 9.14L27.16 9.14L27.16 9.14Q27.16 10.10 26.54 10.78L26.54 10.78L26.54 10.78Q25.92 11.46 24.95 11.74ZM34.08 11.05L34.08 11.05L34.82 10.62L34.89 10.69L34.89 10.69Q34.80 12.36 34.80 13.75L34.80 13.75L34.80 13.75Q34.80 13.88 34.79 14.16L34.79 14.16L34.79 14.16Q34.78 14.44 34.78 14.65L34.78 14.65L34.78 14.65Q34.77 14.86 34.78 15.14L34.78 15.14L34.78 15.14Q34.78 15.42 34.82 15.61L34.82 15.61L34.82 15.61Q34.85 15.81 34.91 15.99L34.91 15.99L34.91 15.99Q34.97 16.17 35.08 16.27L35.08 16.27L35.08 16.27Q35.19 16.37 35.35 16.37L35.35 16.37L35.35 16.37Q35.58 16.37 36.26 16.11L36.26 16.11L36.36 16.45L36.36 16.45Q36.32 16.47 36.17 16.56L36.17 16.56L36.17 16.56Q36.02 16.65 35.96 16.69L35.96 16.69L35.96 16.69Q35.90 16.72 35.76 16.80L35.76 16.80L35.76 16.80Q35.62 16.88 35.54 16.93L35.54 16.93L35.54 16.93Q35.46 16.97 35.34 17.03L35.34 17.03L35.34 17.03Q35.21 17.10 35.13 17.13L35.13 17.13L35.13 17.13Q35.04 17.16 34.94 17.20L34.94 17.20L34.94 17.20Q34.84 17.23 34.75 17.25L34.75 17.25L34.75 17.25Q34.67 17.26 34.60 17.26L34.60 17.26L34.60 17.26Q34.23 17.26 34.05 17.05L34.05 17.05L34.05 17.05Q33.87 16.83 33.80 16.43L33.80 16.43L33.58 16.38L33.58 16.38Q32.25 17.26 31.30 17.26L31.30 17.26L31.30 17.26Q30.75 17.26 30.33 17.01L30.33 17.01L30.33 17.01Q29.91 16.76 29.69 16.34L29.69 16.34L29.69 16.34Q29.46 15.93 29.35 15.47L29.35 15.47L29.35 15.47Q29.24 15.00 29.24 14.50L29.24 14.50L29.24 14.50Q29.24 13.89 29.36 13.33L29.36 13.33L29.36 13.33Q29.48 12.77 29.74 12.26L29.74 12.26L29.74 12.26Q30.00 11.76 30.38 11.38L30.38 11.38L30.38 11.38Q30.75 11.01 31.32 10.79L31.32 10.79L31.32 10.79Q31.89 10.57 32.58 10.57L32.58 10.57L32.58 10.57Q32.94 10.57 33.34 10.69L33.34 10.69L33.34 10.69Q33.75 10.82 34.08 11.05ZM33.77 15.70L33.77 15.70L33.77 12.48L33.77 12.48Q33.77 12.24 33.76 12.11L33.76 12.11L33.76 12.11Q33.76 11.98 33.70 11.81L33.70 11.81L33.70 11.81Q33.65 11.63 33.54 11.52L33.54 11.52L33.54 11.52Q33.10 11.05 32.59 11.05L32.59 11.05L32.59 11.05Q31.81 11.05 31.26 11.59L31.26 11.59L31.26 11.59Q30.97 11.87 30.75 12.49L30.75 12.49L30.75 12.49Q30.53 13.12 30.51 14.08L30.51 14.08L30.51 14.08Q30.48 15.12 30.90 15.76L30.90 15.76L30.90 15.76Q31.26 16.33 32.29 16.33L32.29 16.33L32.29 16.33Q32.96 16.33 33.77 15.70ZM37.54 8.94L37.54 8.94L38.72 8.54L38.81 8.61L38.81 8.61Q38.68 10.23 38.66 10.93L38.66 10.93L38.75 11.00L40.54 11.00L40.61 11.05L40.50 11.42L40.41 11.49L38.75 11.49L38.66 11.57L38.66 14.22L38.66 14.22Q38.66 14.65 38.70 14.97L38.70 14.97L38.70 14.97Q38.73 15.30 38.83 15.63L38.83 15.63L38.83 15.63Q38.92 15.96 39.13 16.14L39.13 16.14L39.13 16.14Q39.34 16.32 39.66 16.32L39.66 16.32L39.66 16.32Q40.03 16.32 40.93 15.74L40.93 15.74L41.10 15.77L41.19 15.98L41.19 15.98Q39.88 17.21 38.90 17.21L38.90 17.21L38.90 17.21Q38.22 17.21 37.89 16.78L37.89 16.78L37.89 16.78Q37.67 16.50 37.62 16.09L37.62 16.09L37.62 16.09Q37.57 15.67 37.57 14.25L37.57 14.25L37.57 11.59L37.49 11.49L35.92 11.49L35.85 11.42L35.94 11.08L36.03 11.00L37.49 11.00L37.57 10.92L37.57 10.92Q37.57 9.30 37.54 8.94ZM41.98 8.94L41.98 8.94L43.16 8.54L43.25 8.61L43.25 8.61Q43.11 10.23 43.10 10.93L43.10 10.93L43.18 11.00L44.97 11.00L45.04 11.05L44.93 11.42L44.85 11.49L43.18 11.49L43.10 11.57L43.10 14.22L43.10 14.22Q43.10 14.65 43.13 14.97L43.13 14.97L43.13 14.97Q43.17 15.30 43.26 15.63L43.26 15.63L43.26 15.63Q43.36 15.96 43.57 16.14L43.57 16.14L43.57 16.14Q43.78 16.32 44.09 16.32L44.09 16.32L44.09 16.32Q44.47 16.32 45.36 15.74L45.36 15.74L45.53 15.77L45.63 15.98L45.63 15.98Q44.32 17.21 43.34 17.21L43.34 17.21L43.34 17.21Q42.66 17.21 42.33 16.78L42.33 16.78L42.33 16.78Q42.11 16.50 42.06 16.09L42.06 16.09L42.06 16.09Q42.01 15.67 42.01 14.25L42.01 14.25L42.01 11.59L41.92 11.49L40.35 11.49L40.28 11.42L40.38 11.08L40.47 11.00L41.92 11.00L42.01 10.92L42.01 10.92Q42.01 9.30 41.98 8.94ZM45.81 19.64L45.81 19.64L45.79 19.48L46.40 18.70L46.58 18.70L46.58 18.70Q46.83 19.15 47.21 19.47L47.21 19.47L47.21 19.47Q47.60 19.78 48.04 19.78L48.04 19.78L48.04 19.78Q48.47 19.78 48.81 19.62L48.81 19.62L48.81 19.62Q49.14 19.46 49.34 19.24L49.34 19.24L49.34 19.24Q49.54 19.02 49.69 18.69L49.69 18.69L49.69 18.69Q49.83 18.35 49.90 18.11L49.90 18.11L49.90 18.11Q49.96 17.87 50.01 17.57L50.01 17.57L50.01 17.57Q50.10 17.06 50.13 16.19L50.13 16.19L50.04 16.13L50.04 16.13Q49.52 16.45 49.18 16.64L49.18 16.64L49.18 16.64Q48.85 16.83 48.34 17.01L48.34 17.01L48.34 17.01Q47.82 17.20 47.41 17.20L47.41 17.20L47.41 17.20Q47.13 17.20 46.90 17.12L46.90 17.12L46.90 17.12Q46.68 17.04 46.53 16.91L46.53 16.91L46.53 16.91Q46.38 16.78 46.27 16.58L46.27 16.58L46.27 16.58Q46.16 16.39 46.09 16.19L46.09 16.19L46.09 16.19Q46.03 16.00 46.00 15.75L46.00 15.75L46.00 15.75Q45.97 15.50 45.96 15.32L45.96 15.32L45.96 15.32Q45.95 15.13 45.95 14.89L45.95 14.89L45.95 14.89Q45.95 14.58 45.98 13.96L45.98 13.96L45.98 13.96Q46.01 13.33 46.01 12.97L46.01 12.97L46.01 12.97Q46.01 12.55 45.99 12.29L45.99 12.29L45.99 12.29Q45.96 12.02 45.90 11.79L45.90 11.79L45.90 11.79Q45.83 11.56 45.71 11.45L45.71 11.45L45.71 11.45Q45.58 11.35 45.36 11.35L45.36 11.35L45.36 11.35Q45.12 11.35 44.37 11.74L44.37 11.74L44.21 11.48L44.21 11.48Q45.58 10.54 46.16 10.54L46.16 10.54L46.16 10.54Q46.59 10.54 46.82 10.82L46.82 10.82L46.82 10.82Q47.04 11.10 47.04 11.52L47.04 11.52L47.04 11.52Q47.04 11.91 47.02 12.71L47.02 12.71L47.02 12.71Q46.99 13.51 46.99 13.92L46.99 13.92L46.99 13.92Q47.02 14.85 47.11 15.28L47.11 15.28L47.11 15.28Q47.20 15.71 47.38 15.94L47.38 15.94L47.38 15.94Q47.67 16.30 48.26 16.30L48.26 16.30L48.26 16.30Q48.57 16.30 48.95 16.17L48.95 16.17L48.95 16.17Q49.33 16.04 49.55 15.92L49.55 15.92L49.55 15.92Q49.77 15.80 50.14 15.58L50.14 15.58L50.14 15.58Q50.17 14.59 50.17 14.08L50.17 14.08L50.17 14.08Q50.17 12.74 50.05 11.09L50.05 11.09L51.16 10.57L51.33 10.62L51.33 10.62Q51.26 11.76 51.24 13.35L51.24 13.35L51.24 13.35Q51.23 14.94 51.20 16.07L51.20 16.07L51.20 16.07Q51.17 17.20 51.04 17.77L51.04 17.77L51.04 17.77Q50.67 19.07 49.73 19.71L49.73 19.71L49.73 19.71Q48.79 20.35 47.59 20.35L47.59 20.35L47.59 20.35Q47.11 20.35 46.60 20.15L46.60 20.15L46.60 20.15Q46.10 19.94 45.81 19.64Z"></path></g><!----><!----></svg>